<?xml version="1.0" standalone="no"?>
<!DOCTYPE svg PUBLIC "-//W3C//DTD SVG 1.1//EN"
  "http://www.w3.org/Graphics/SVG/1.1/DTD/svg11.dtd">
<svg width="26.599799cm" height="26.099799cm" viewBox="-135.998993 -130.998993 265.997986 260.997986"
     xmlns="http://www.w3.org/2000/svg" version="1.1">
  <title>Copy of OpenBeam Metric Tantillus</title>
  <desc> made with tinkercad </desc>
<path d=" M 121.998001 -72.001999 L 123.248001 -71.667000 L 124.164001 -70.751999 L 124.499001 -69.501999 L 124.164001 -68.250999 L 123.248001 -67.335999 L 121.998001 -67.000999 L 120.747002 -67.335999 L 119.832001 -68.250999 L 119.497002 -69.501999 L 119.832001 -70.751999 L 120.747002 -71.667000 z M 119.997002 75.001999 L 120.332001 73.751999 L 121.248001 72.835999 L 122.498001 72.500999 L 123.749001 72.835999 L 124.664001 73.751999 L 124.999001 75.001999 L 124.664001 76.251999 L 123.749001 77.167999 L 122.498001 77.502998 L 121.248001 77.167999 L 120.332001 76.251999 z M -125.497002 -32.500999 L -125.832001 -31.250999 L -126.747002 -30.336000 L -127.998001 -30.000999 L -129.248001 -30.336000 L -130.164001 -31.250999 L -130.498993 -32.500999 L -130.164001 -33.750999 L -129.248001 -34.667000 L -127.998001 -35.001999 L -126.747002 -34.667000 L -125.832001 -33.750999 z M 98.000999 -0.735000 L 98.733002 -0.003000 L 99.000999 0.998000 L 98.733002 1.998000 L 98.000999 2.730000 L 97.000000 2.998000 L 96.000000 2.730000 L 95.267998 1.998000 L 95.000000 0.998000 L 95.267998 -0.003000 L 96.000000 -0.735000 L 97.000000 -1.003000 z M -72.501999 -122.998001 L -72.836998 -121.747002 L -73.751999 -120.832001 L -75.002998 -120.497002 L -76.252998 -120.832001 L -77.167999 -121.747002 L -77.502998 -122.998001 L -77.167999 -124.248001 L -76.252998 -125.164001 L -75.002998 -125.499001 L -73.751999 -125.164001 L -72.836998 -124.248001 z M -2.251000 -120.832001 L -3.501000 -120.497002 L -4.751000 -120.832001 L -5.666000 -121.747002 L -6.001000 -122.998001 L -5.666000 -124.248001 L -4.751000 -125.164001 L -3.501000 -125.499001 L -2.251000 -125.164001 L -1.335000 -124.248001 L -1.000000 -122.998001 L -1.335000 -121.747002 z M 122.879997 -85.000999 L 124.499001 -85.000999 L 128.998993 -85.000999 L 128.998993 -67.000999 L 128.998993 -31.500000 L 128.998993 77.502998 L 128.998993 90.000999 L 122.879997 90.000999 L 120.516998 90.000999 L 119.997002 90.000999 L 119.497002 90.000999 L 115.001999 90.000999 L 114.688004 90.315002 L 106.698997 98.304001 L 103.000000 102.002998 L 98.304001 106.698997 L 95.000000 110.002998 L 90.315002 114.688004 L 85.000999 120.001999 L 85.000999 122.879997 L 85.000999 124.499001 L 85.000999 128.998993 L 63.000999 128.998993 L 27.500000 128.998993 L -81.502998 128.998993 L -95.000999 128.998993 L -95.000999 120.001999 L -98.304001 116.698997 L -100.315002 114.688004 L -114.688004 100.315002 L -116.698997 98.304001 L -125.001999 90.000999 L -130.498993 90.000999 L -130.998993 90.000999 L -131.072006 90.000999 L -134.998993 90.000999 L -134.998993 -85.000999 L -131.072006 -85.000999 L -130.998993 -85.000999 L -130.498993 -85.000999 L -125.997002 -85.000999 L -125.497002 -85.000999 L -122.879997 -85.000999 L -120.001999 -85.000999 L -114.688004 -90.315002 L -106.698997 -98.304001 L -98.304001 -106.698997 L -90.315002 -114.688004 L -90.000999 -115.001999 L -90.000999 -122.879997 L -90.000999 -129.998993 L -77.502998 -129.998993 L -72.501999 -129.998993 L -42.001999 -129.998993 L -37.000999 -129.998993 L -6.001000 -129.998993 L -1.000000 -129.998993 L 30.000000 -129.998993 L 35.000999 -129.998993 L 67.000000 -129.998993 L 72.001999 -129.998993 L 85.000999 -129.998993 L 85.000999 -122.879997 L 85.000999 -120.997002 L 85.000999 -120.497002 L 85.000999 -115.001999 L 85.315002 -114.688004 L 98.304001 -101.698997 L 101.698997 -98.304001 L 114.688004 -85.315002 L 115.001999 -85.000999 L 119.497002 -85.000999 z M 98.304001 98.572998 L 98.035004 98.304001 L 98.000999 98.269997 L 97.000000 98.001999 L 96.000000 98.269997 L 95.966003 98.304001 L 95.267998 99.001999 L 95.000000 100.001999 L 95.267998 101.002998 L 96.000000 101.735001 L 97.000000 102.002998 L 98.000999 101.735001 L 98.304001 101.431999 L 98.733002 101.002998 L 99.000999 100.001999 L 98.733002 99.001999 z M -81.167999 123.749001 L -81.502998 122.498001 L -81.167999 121.248001 L -80.251999 120.332001 L -79.001999 119.997002 L -77.751999 120.332001 L -76.835999 121.248001 L -76.500999 122.498001 L -76.835999 123.749001 L -77.751999 124.664001 L -79.001999 124.999001 L -80.251999 124.664001 z M -38.250999 -120.832001 L -39.501999 -120.497002 L -40.751999 -120.832001 L -41.667000 -121.747002 L -42.001999 -122.998001 L -41.667000 -124.248001 L -40.751999 -125.164001 L -39.501999 -125.499001 L -38.250999 -125.164001 L -37.335999 -124.248001 L -37.000999 -122.998001 L -37.335999 -121.747002 z M 67.334999 -122.248001 L 67.000000 -123.498001 L 67.334999 -124.749001 L 68.250999 -125.664001 L 69.500999 -125.999001 L 70.750999 -125.664001 L 71.667000 -124.749001 L 72.001999 -123.498001 L 71.667000 -122.248001 L 70.750999 -121.332001 L 69.500999 -120.997002 L 68.250999 -121.332001 z M -130.498993 75.001999 L -130.164001 76.251999 L -129.248001 77.167000 L -127.998001 77.501999 L -126.747002 77.167000 L -125.832001 76.251999 L -125.497002 75.001999 L -125.832001 73.750999 L -126.747002 72.835999 L -127.998001 72.500999 L -129.248001 72.835999 L -130.164001 73.750999 z M 124.164001 36.750999 L 124.499001 38.000999 L 124.164001 39.250999 L 123.248001 40.167000 L 121.998001 40.501999 L 120.747002 40.167000 L 119.997002 39.416180 L 119.832001 39.250999 L 119.497002 38.000999 L 119.832001 36.750999 L 119.997002 36.585999 L 120.747002 35.835999 L 121.998001 35.500999 L 123.248001 35.835999 z M -127.248001 -67.335999 L -128.498001 -67.000999 L -129.748993 -67.335999 L -130.498993 -68.086823 L -130.664001 -68.251999 L -130.998993 -69.501999 L -130.664001 -70.751999 L -130.498993 -70.917183 L -129.748993 -71.667999 L -128.498001 -72.002998 L -127.248001 -71.667999 L -126.332001 -70.751999 L -125.997002 -69.501999 L -126.332001 -68.251999 z M 31.250000 -120.832001 L 30.334999 -121.747002 L 30.000000 -122.998001 L 30.334999 -124.248001 L 31.250000 -125.164001 L 32.500000 -125.499001 L 33.750000 -125.164001 L 34.666000 -124.248001 L 35.000999 -122.998001 L 34.666000 -121.747002 L 33.750000 -120.832001 L 32.500000 -120.497002 z M 123.248001 -0.165000 L 124.164001 0.750000 L 124.499001 2.000000 L 124.164001 3.250000 L 123.248001 4.166000 L 121.998001 4.501000 L 120.747002 4.166000 L 119.997002 3.415180 L 119.832001 3.250000 L 119.497002 2.000000 L 119.832001 0.750000 L 119.997002 0.585000 L 120.747002 -0.165000 L 121.998001 -0.500000 z M 119.832001 -32.750000 L 119.497002 -34.000999 L 119.832001 -35.250999 L 120.747002 -36.166000 L 121.998001 -36.500999 L 123.248001 -36.166000 L 124.164001 -35.250999 L 124.499001 -34.000999 L 124.164001 -32.750000 L 123.248001 -31.834999 L 121.998001 -31.500000 L 120.747002 -31.834999 z M -129.248001 5.665000 L -130.164001 4.750000 L -130.498993 3.500000 L -130.164001 2.250000 L -129.248001 1.334000 L -127.998001 0.999000 L -126.747002 1.334000 L -125.832001 2.250000 L -125.497002 3.500000 L -125.832001 4.750000 L -126.747002 5.665000 L -127.998001 6.000000 z M 81.251999 -70.332001 L 80.000000 -69.997002 L 78.749001 -70.332001 L 77.832001 -71.249001 L 77.497002 -72.500000 L 77.832001 -73.751999 L 78.749001 -74.667999 L 80.000000 -75.002998 L 81.251999 -74.667999 L 82.167999 -73.751999 L 82.502998 -72.500000 L 82.167999 -71.249001 z M -126.747002 37.334999 L -125.832001 38.250000 L -125.497002 39.500999 L -125.832001 40.750999 L -126.747002 41.666000 L -127.998001 42.000999 L -129.248001 41.666000 L -130.164001 40.750999 L -130.498993 39.500999 L -130.164001 38.250000 L -129.248001 37.334999 L -127.998001 37.000000 z M -8.166000 123.248001 L -8.501000 121.998001 L -8.166000 120.747002 L -7.250000 119.832001 L -6.000000 119.497002 L -4.750000 119.832001 L -3.835000 120.747002 L -3.500000 121.998001 L -3.835000 123.248001 L -4.750000 124.164001 L -6.000000 124.499001 L -7.250000 124.164001 z M 65.501999 119.497002 L 66.751999 119.832001 L 67.667000 120.747002 L 68.001999 121.998001 L 67.667000 123.248001 L 66.751999 124.164001 L 65.501999 124.499001 L 64.250999 124.164001 L 63.335999 123.248001 L 63.000999 121.998001 L 63.335999 120.747002 L 64.250999 119.832001 z M 0.000000 -75.002998 L 1.252000 -74.667999 L 2.168000 -73.751999 L 2.503000 -72.500000 L 2.168000 -71.249001 L 1.252000 -70.332001 L -0.000000 -69.997002 L -1.252000 -70.332001 L -2.168000 -71.249001 L -2.503000 -72.500000 L -2.168000 -73.751999 L -1.252000 -74.667999 z M -17.167999 -73.751999 L -16.252001 -74.667999 L -15.000000 -75.002998 L -13.749000 -74.667999 L -12.832000 -73.751999 L -12.497000 -72.500000 L -12.832000 -71.249001 L -13.749000 -70.332001 L -15.000000 -69.997002 L -16.252001 -70.332001 L -17.167999 -71.249001 L -17.503000 -72.500000 z M 97.167999 -73.751999 L 97.502998 -72.500000 L 97.167999 -71.249001 L 96.251999 -70.332001 L 95.000000 -69.997002 L 93.749001 -70.332001 L 92.832001 -71.249001 L 92.497002 -72.500000 L 92.832001 -73.751999 L 93.749001 -74.667999 L 95.000000 -75.002998 L 96.251999 -74.667999 z M -44.167000 123.248001 L -44.501999 121.998001 L -44.167000 120.747002 L -43.250999 119.832001 L -42.000999 119.497002 L -40.750999 119.832001 L -39.835999 120.747002 L -39.500999 121.998001 L -39.835999 123.248001 L -40.750999 124.164001 L -42.000999 124.499001 L -43.250999 124.164001 z M 30.000999 119.497002 L 31.250999 119.832001 L 32.166000 120.747002 L 32.500999 121.998001 L 32.166000 123.248001 L 31.250999 124.164001 L 30.000999 124.499001 L 28.750000 124.164001 L 27.834999 123.248001 L 27.500000 121.998001 L 27.834999 120.747002 L 28.750000 119.832001 z M -26.004999 101.735001 L -26.737000 101.002998 L -27.004999 100.001999 L -26.737000 99.001999 L -26.004999 98.269997 L -25.004000 98.001999 L -24.004000 98.269997 L -23.271999 99.001999 L -23.004000 100.001999 L -23.271999 101.002998 L -24.004000 101.735001 L -25.004000 102.002998 z M -26.004999 2.730000 L -26.737000 1.998000 L -27.004999 0.998000 L -26.737000 -0.003000 L -26.004999 -0.735000 L -25.004000 -1.003000 L -24.004000 -0.735000 L -23.271999 -0.003000 L -23.004000 0.998000 L -23.271999 1.998000 L -24.004000 2.730000 L -25.004000 2.998000 z" fill="none" stroke="rgb(0,0,255)" stroke-width="0.01mm" />
</svg>
