solid OpenSCAD_Model
  facet normal -1 0 0
    outer loop
      vertex 0 0 0
      vertex 0 15 5
      vertex 0 15 0
    endloop
  endfacet
  facet normal -1 -0 0
    outer loop
      vertex 0 15 5
      vertex 0 0 0
      vertex 0 0 5
    endloop
  endfacet
  facet normal -0 0 1
    outer loop
      vertex 0 15 5
      vertex 1.11022e-015 0 5
      vertex 1.11022e-015 15 5
    endloop
  endfacet
  facet normal 0 0 1
    outer loop
      vertex 1.11022e-015 0 5
      vertex 0 15 5
      vertex 0 0 5
    endloop
  endfacet
  facet normal 0 0 1
    outer loop
      vertex 20 15 5
      vertex 14.5 7.5 5
      vertex 20 0 5
    endloop
  endfacet
  facet normal 0 0 1
    outer loop
      vertex 20 15 5
      vertex 14.4419 7.97863 5
      vertex 14.5 7.5 5
    endloop
  endfacet
  facet normal 0 0 1
    outer loop
      vertex 20 15 5
      vertex 14.2709 8.42945 5
      vertex 14.4419 7.97863 5
    endloop
  endfacet
  facet normal 0 0 1
    outer loop
      vertex 20 15 5
      vertex 13.997 8.82625 5
      vertex 14.2709 8.42945 5
    endloop
  endfacet
  facet normal 0 0 1
    outer loop
      vertex 20 15 5
      vertex 13.6361 9.14597 5
      vertex 13.997 8.82625 5
    endloop
  endfacet
  facet normal 0 0 1
    outer loop
      vertex 20 15 5
      vertex 13.2092 9.37003 5
      vertex 13.6361 9.14597 5
    endloop
  endfacet
  facet normal 0 0 1
    outer loop
      vertex 20 15 5
      vertex 12.7411 9.48542 5
      vertex 13.2092 9.37003 5
    endloop
  endfacet
  facet normal 0 0 1
    outer loop
      vertex 20 15 5
      vertex 12.2589 9.48542 5
      vertex 12.7411 9.48542 5
    endloop
  endfacet
  facet normal -0 0 1
    outer loop
      vertex 5 15 5
      vertex 12.2589 9.48542 5
      vertex 20 15 5
    endloop
  endfacet
  facet normal 0 0 1
    outer loop
      vertex 12.2589 9.48542 5
      vertex 5 15 5
      vertex 11.7908 9.37003 5
    endloop
  endfacet
  facet normal 0 0 1
    outer loop
      vertex 10.5581 7.97863 5
      vertex 5 15 5
      vertex 10.5 7.5 5
    endloop
  endfacet
  facet normal 0 0 1
    outer loop
      vertex 10.7291 8.42945 5
      vertex 5 15 5
      vertex 10.5581 7.97863 5
    endloop
  endfacet
  facet normal 0 0 1
    outer loop
      vertex 11.003 8.82625 5
      vertex 5 15 5
      vertex 10.7291 8.42945 5
    endloop
  endfacet
  facet normal 0 0 1
    outer loop
      vertex 11.3639 9.14597 5
      vertex 5 15 5
      vertex 11.003 8.82625 5
    endloop
  endfacet
  facet normal 0 0 1
    outer loop
      vertex 11.7908 9.37003 5
      vertex 5 15 5
      vertex 11.3639 9.14597 5
    endloop
  endfacet
  facet normal -0 0 1
    outer loop
      vertex 14.4419 7.02137 5
      vertex 20 0 5
      vertex 14.5 7.5 5
    endloop
  endfacet
  facet normal -0 0 1
    outer loop
      vertex 14.2709 6.57055 5
      vertex 20 0 5
      vertex 14.4419 7.02137 5
    endloop
  endfacet
  facet normal -0 0 1
    outer loop
      vertex 13.997 6.17375 5
      vertex 20 0 5
      vertex 14.2709 6.57055 5
    endloop
  endfacet
  facet normal -0 0 1
    outer loop
      vertex 13.6361 5.85403 5
      vertex 20 0 5
      vertex 13.997 6.17375 5
    endloop
  endfacet
  facet normal -0 0 1
    outer loop
      vertex 13.2092 5.62997 5
      vertex 20 0 5
      vertex 13.6361 5.85403 5
    endloop
  endfacet
  facet normal -0 0 1
    outer loop
      vertex 12.7411 5.51458 5
      vertex 20 0 5
      vertex 13.2092 5.62997 5
    endloop
  endfacet
  facet normal -0 0 1
    outer loop
      vertex 12.2589 5.51458 5
      vertex 20 0 5
      vertex 12.7411 5.51458 5
    endloop
  endfacet
  facet normal 0 0 1
    outer loop
      vertex 5 0 5
      vertex 12.2589 5.51458 5
      vertex 11.7908 5.62997 5
    endloop
  endfacet
  facet normal 0 0 1
    outer loop
      vertex 5 0 5
      vertex 11.7908 5.62997 5
      vertex 11.3639 5.85403 5
    endloop
  endfacet
  facet normal 0 0 1
    outer loop
      vertex 5 0 5
      vertex 10.5 7.5 5
      vertex 5 15 5
    endloop
  endfacet
  facet normal 0 0 1
    outer loop
      vertex 10.5 7.5 5
      vertex 5 0 5
      vertex 10.5581 7.02137 5
    endloop
  endfacet
  facet normal 0 0 1
    outer loop
      vertex 12.2589 5.51458 5
      vertex 5 0 5
      vertex 20 0 5
    endloop
  endfacet
  facet normal 0 0 1
    outer loop
      vertex 11.003 6.17375 5
      vertex 5 0 5
      vertex 11.3639 5.85403 5
    endloop
  endfacet
  facet normal 0 0 1
    outer loop
      vertex 10.7291 6.57055 5
      vertex 5 0 5
      vertex 11.003 6.17375 5
    endloop
  endfacet
  facet normal 0 0 1
    outer loop
      vertex 10.5581 7.02137 5
      vertex 5 0 5
      vertex 10.7291 6.57055 5
    endloop
  endfacet
  facet normal 1 -0 0
    outer loop
      vertex 20 0 5
      vertex 20 15 0
      vertex 20 15 5
    endloop
  endfacet
  facet normal 1 0 0
    outer loop
      vertex 20 15 0
      vertex 20 0 5
      vertex 20 0 0
    endloop
  endfacet
  facet normal 0 0 -1
    outer loop
      vertex 20 0 0
      vertex 14.5 7.5 0
      vertex 20 15 0
    endloop
  endfacet
  facet normal 0 0 -1
    outer loop
      vertex 20 0 0
      vertex 14.4419 7.02137 0
      vertex 14.5 7.5 0
    endloop
  endfacet
  facet normal 0 0 -1
    outer loop
      vertex 20 0 0
      vertex 14.2709 6.57055 0
      vertex 14.4419 7.02137 0
    endloop
  endfacet
  facet normal 0 0 -1
    outer loop
      vertex 20 0 0
      vertex 13.997 6.17375 0
      vertex 14.2709 6.57055 0
    endloop
  endfacet
  facet normal 0 0 -1
    outer loop
      vertex 20 0 0
      vertex 13.6361 5.85403 0
      vertex 13.997 6.17375 0
    endloop
  endfacet
  facet normal 0 0 -1
    outer loop
      vertex 20 0 0
      vertex 13.2092 5.62997 0
      vertex 13.6361 5.85403 0
    endloop
  endfacet
  facet normal 0 0 -1
    outer loop
      vertex 20 0 0
      vertex 12.7411 5.51458 0
      vertex 13.2092 5.62997 0
    endloop
  endfacet
  facet normal 0 0 -1
    outer loop
      vertex 20 0 0
      vertex 12.2589 5.51458 0
      vertex 12.7411 5.51458 0
    endloop
  endfacet
  facet normal 0 0 -1
    outer loop
      vertex 0 0 0
      vertex 12.2589 5.51458 0
      vertex 20 0 0
    endloop
  endfacet
  facet normal -0 0 -1
    outer loop
      vertex 12.2589 5.51458 0
      vertex 0 0 0
      vertex 11.7908 5.62997 0
    endloop
  endfacet
  facet normal -0 0 -1
    outer loop
      vertex 10.5581 7.02137 0
      vertex 0 0 0
      vertex 10.5 7.5 0
    endloop
  endfacet
  facet normal -0 0 -1
    outer loop
      vertex 10.7291 6.57055 0
      vertex 0 0 0
      vertex 10.5581 7.02137 0
    endloop
  endfacet
  facet normal -0 0 -1
    outer loop
      vertex 11.003 6.17375 0
      vertex 0 0 0
      vertex 10.7291 6.57055 0
    endloop
  endfacet
  facet normal -0 0 -1
    outer loop
      vertex 11.3639 5.85403 0
      vertex 0 0 0
      vertex 11.003 6.17375 0
    endloop
  endfacet
  facet normal -0 0 -1
    outer loop
      vertex 11.7908 5.62997 0
      vertex 0 0 0
      vertex 11.3639 5.85403 0
    endloop
  endfacet
  facet normal 0 0 -1
    outer loop
      vertex 14.4419 7.97863 0
      vertex 20 15 0
      vertex 14.5 7.5 0
    endloop
  endfacet
  facet normal 0 0 -1
    outer loop
      vertex 14.2709 8.42945 0
      vertex 20 15 0
      vertex 14.4419 7.97863 0
    endloop
  endfacet
  facet normal 0 0 -1
    outer loop
      vertex 13.997 8.82625 0
      vertex 20 15 0
      vertex 14.2709 8.42945 0
    endloop
  endfacet
  facet normal 0 0 -1
    outer loop
      vertex 13.6361 9.14597 0
      vertex 20 15 0
      vertex 13.997 8.82625 0
    endloop
  endfacet
  facet normal 0 0 -1
    outer loop
      vertex 13.2092 9.37003 0
      vertex 20 15 0
      vertex 13.6361 9.14597 0
    endloop
  endfacet
  facet normal 0 0 -1
    outer loop
      vertex 12.7411 9.48542 0
      vertex 20 15 0
      vertex 13.2092 9.37003 0
    endloop
  endfacet
  facet normal 0 0 -1
    outer loop
      vertex 12.2589 9.48542 0
      vertex 20 15 0
      vertex 12.7411 9.48542 0
    endloop
  endfacet
  facet normal 0 0 -1
    outer loop
      vertex 0 15 0
      vertex 12.2589 9.48542 0
      vertex 11.7908 9.37003 0
    endloop
  endfacet
  facet normal 0 0 -1
    outer loop
      vertex 0 15 0
      vertex 11.7908 9.37003 0
      vertex 11.3639 9.14597 0
    endloop
  endfacet
  facet normal 0 0 -1
    outer loop
      vertex 0 15 0
      vertex 10.5 7.5 0
      vertex 0 0 0
    endloop
  endfacet
  facet normal 0 0 -1
    outer loop
      vertex 10.5 7.5 0
      vertex 0 15 0
      vertex 10.5581 7.97863 0
    endloop
  endfacet
  facet normal 0 0 -1
    outer loop
      vertex 10.5581 7.97863 0
      vertex 0 15 0
      vertex 10.7291 8.42945 0
    endloop
  endfacet
  facet normal 0 0 -1
    outer loop
      vertex 10.7291 8.42945 0
      vertex 0 15 0
      vertex 11.003 8.82625 0
    endloop
  endfacet
  facet normal 0 0 -1
    outer loop
      vertex 12.2589 9.48542 0
      vertex 0 15 0
      vertex 20 15 0
    endloop
  endfacet
  facet normal 0 0 -1
    outer loop
      vertex 11.003 8.82625 0
      vertex 0 15 0
      vertex 11.3639 9.14597 0
    endloop
  endfacet
  facet normal 0 -1 0
    outer loop
      vertex 0 0 0
      vertex 1.11022e-015 0 5
      vertex 0 0 5
    endloop
  endfacet
  facet normal 0 -1 -0
    outer loop
      vertex 1.11022e-015 0 5
      vertex 0 0 0
      vertex 5 0 5
    endloop
  endfacet
  facet normal 0 -1 0
    outer loop
      vertex 20 0 0
      vertex 5 0 5
      vertex 0 0 0
    endloop
  endfacet
  facet normal 0 -1 0
    outer loop
      vertex 5 0 5
      vertex 20 0 0
      vertex 20 0 5
    endloop
  endfacet
  facet normal 0 -1 0
    outer loop
      vertex 1.11022e-015 0 5
      vertex 5 0 20
      vertex 4.44089e-015 0 20
    endloop
  endfacet
  facet normal 0 -1 -0
    outer loop
      vertex 5 0 20
      vertex 1.11022e-015 0 5
      vertex 5 0 5
    endloop
  endfacet
  facet normal 0 1 -0
    outer loop
      vertex 20 15 0
      vertex 5 15 5
      vertex 20 15 5
    endloop
  endfacet
  facet normal 0 1 0
    outer loop
      vertex 0 15 0
      vertex 5 15 5
      vertex 20 15 0
    endloop
  endfacet
  facet normal 0 1 0
    outer loop
      vertex 5 15 5
      vertex 0 15 0
      vertex 1.11022e-015 15 5
    endloop
  endfacet
  facet normal 0 1 0
    outer loop
      vertex 1.11022e-015 15 5
      vertex 0 15 0
      vertex 0 15 5
    endloop
  endfacet
  facet normal 0 1 -0
    outer loop
      vertex 5 15 5
      vertex 4.44089e-015 15 20
      vertex 5 15 20
    endloop
  endfacet
  facet normal 0 1 0
    outer loop
      vertex 4.44089e-015 15 20
      vertex 5 15 5
      vertex 1.11022e-015 15 5
    endloop
  endfacet
  facet normal -0.992709 -0.120538 0
    outer loop
      vertex 14.5 7.5 0
      vertex 14.4419 7.97863 5
      vertex 14.4419 7.97863 0
    endloop
  endfacet
  facet normal -0.992709 -0.120538 0
    outer loop
      vertex 14.4419 7.97863 5
      vertex 14.5 7.5 0
      vertex 14.5 7.5 5
    endloop
  endfacet
  facet normal 0.992709 0.120536 0
    outer loop
      vertex 10.5581 7.02137 5
      vertex 10.5 7.5 0
      vertex 10.5 7.5 5
    endloop
  endfacet
  facet normal 0.992709 0.120536 0
    outer loop
      vertex 10.5 7.5 0
      vertex 10.5581 7.02137 5
      vertex 10.5581 7.02137 0
    endloop
  endfacet
  facet normal 0.239315 -0.970942 0
    outer loop
      vertex 11.7908 9.37003 0
      vertex 12.2589 9.48542 5
      vertex 11.7908 9.37003 5
    endloop
  endfacet
  facet normal 0.239315 -0.970942 0
    outer loop
      vertex 12.2589 9.48542 5
      vertex 11.7908 9.37003 0
      vertex 12.2589 9.48542 0
    endloop
  endfacet
  facet normal -0.239315 0.970942 0
    outer loop
      vertex 13.2092 5.62997 0
      vertex 12.7411 5.51458 5
      vertex 13.2092 5.62997 5
    endloop
  endfacet
  facet normal -0.239315 0.970942 0
    outer loop
      vertex 12.7411 5.51458 5
      vertex 13.2092 5.62997 0
      vertex 12.7411 5.51458 0
    endloop
  endfacet
  facet normal -0.464723 0.885456 0
    outer loop
      vertex 13.6361 5.85403 0
      vertex 13.2092 5.62997 5
      vertex 13.6361 5.85403 5
    endloop
  endfacet
  facet normal -0.464723 0.885456 0
    outer loop
      vertex 13.2092 5.62997 5
      vertex 13.6361 5.85403 0
      vertex 13.2092 5.62997 0
    endloop
  endfacet
  facet normal -0.663123 -0.74851 0
    outer loop
      vertex 13.6361 9.14597 0
      vertex 13.997 8.82625 5
      vertex 13.6361 9.14597 5
    endloop
  endfacet
  facet normal -0.663123 -0.74851 -0
    outer loop
      vertex 13.997 8.82625 5
      vertex 13.6361 9.14597 0
      vertex 13.997 8.82625 0
    endloop
  endfacet
  facet normal -0.935016 -0.354605 0
    outer loop
      vertex 14.4419 7.97863 0
      vertex 14.2709 8.42945 5
      vertex 14.2709 8.42945 0
    endloop
  endfacet
  facet normal -0.935016 -0.354605 0
    outer loop
      vertex 14.2709 8.42945 5
      vertex 14.4419 7.97863 0
      vertex 14.4419 7.97863 5
    endloop
  endfacet
  facet normal 0.822984 -0.568065 0
    outer loop
      vertex 10.7291 8.42945 5
      vertex 11.003 8.82625 0
      vertex 11.003 8.82625 5
    endloop
  endfacet
  facet normal 0.822984 -0.568065 0
    outer loop
      vertex 11.003 8.82625 0
      vertex 10.7291 8.42945 5
      vertex 10.7291 8.42945 0
    endloop
  endfacet
  facet normal 0.935016 -0.354605 0
    outer loop
      vertex 10.5581 7.97863 5
      vertex 10.7291 8.42945 0
      vertex 10.7291 8.42945 5
    endloop
  endfacet
  facet normal 0.935016 -0.354605 0
    outer loop
      vertex 10.7291 8.42945 0
      vertex 10.5581 7.97863 5
      vertex 10.5581 7.97863 0
    endloop
  endfacet
  facet normal 0.464723 -0.885456 0
    outer loop
      vertex 11.3639 9.14597 0
      vertex 11.7908 9.37003 5
      vertex 11.3639 9.14597 5
    endloop
  endfacet
  facet normal 0.464723 -0.885456 0
    outer loop
      vertex 11.7908 9.37003 5
      vertex 11.3639 9.14597 0
      vertex 11.7908 9.37003 0
    endloop
  endfacet
  facet normal -0.822984 -0.568065 0
    outer loop
      vertex 14.2709 8.42945 0
      vertex 13.997 8.82625 5
      vertex 13.997 8.82625 0
    endloop
  endfacet
  facet normal -0.822984 -0.568065 0
    outer loop
      vertex 13.997 8.82625 5
      vertex 14.2709 8.42945 0
      vertex 14.2709 8.42945 5
    endloop
  endfacet
  facet normal -0.239315 -0.970942 0
    outer loop
      vertex 12.7411 9.48542 0
      vertex 13.2092 9.37003 5
      vertex 12.7411 9.48542 5
    endloop
  endfacet
  facet normal -0.239315 -0.970942 -0
    outer loop
      vertex 13.2092 9.37003 5
      vertex 12.7411 9.48542 0
      vertex 13.2092 9.37003 0
    endloop
  endfacet
  facet normal 0 -1 0
    outer loop
      vertex 12.2589 9.48542 0
      vertex 12.7411 9.48542 5
      vertex 12.2589 9.48542 5
    endloop
  endfacet
  facet normal 0 -1 -0
    outer loop
      vertex 12.7411 9.48542 5
      vertex 12.2589 9.48542 0
      vertex 12.7411 9.48542 0
    endloop
  endfacet
  facet normal -0.464723 -0.885456 0
    outer loop
      vertex 13.2092 9.37003 0
      vertex 13.6361 9.14597 5
      vertex 13.2092 9.37003 5
    endloop
  endfacet
  facet normal -0.464723 -0.885456 -0
    outer loop
      vertex 13.6361 9.14597 5
      vertex 13.2092 9.37003 0
      vertex 13.6361 9.14597 0
    endloop
  endfacet
  facet normal 0.992709 -0.120536 0
    outer loop
      vertex 10.5 7.5 5
      vertex 10.5581 7.97863 0
      vertex 10.5581 7.97863 5
    endloop
  endfacet
  facet normal 0.992709 -0.120536 0
    outer loop
      vertex 10.5581 7.97863 0
      vertex 10.5 7.5 5
      vertex 10.5 7.5 0
    endloop
  endfacet
  facet normal 0.663123 -0.74851 0
    outer loop
      vertex 11.003 8.82625 0
      vertex 11.3639 9.14597 5
      vertex 11.003 8.82625 5
    endloop
  endfacet
  facet normal 0.663123 -0.74851 0
    outer loop
      vertex 11.3639 9.14597 5
      vertex 11.003 8.82625 0
      vertex 11.3639 9.14597 0
    endloop
  endfacet
  facet normal -0.992709 0.120538 0
    outer loop
      vertex 14.4419 7.02137 0
      vertex 14.5 7.5 5
      vertex 14.5 7.5 0
    endloop
  endfacet
  facet normal -0.992709 0.120538 0
    outer loop
      vertex 14.5 7.5 5
      vertex 14.4419 7.02137 0
      vertex 14.4419 7.02137 5
    endloop
  endfacet
  facet normal -0.935016 0.354605 0
    outer loop
      vertex 14.2709 6.57055 0
      vertex 14.4419 7.02137 5
      vertex 14.4419 7.02137 0
    endloop
  endfacet
  facet normal -0.935016 0.354605 0
    outer loop
      vertex 14.4419 7.02137 5
      vertex 14.2709 6.57055 0
      vertex 14.2709 6.57055 5
    endloop
  endfacet
  facet normal 0.822984 0.568065 0
    outer loop
      vertex 11.003 6.17375 5
      vertex 10.7291 6.57055 0
      vertex 10.7291 6.57055 5
    endloop
  endfacet
  facet normal 0.822984 0.568065 0
    outer loop
      vertex 10.7291 6.57055 0
      vertex 11.003 6.17375 5
      vertex 11.003 6.17375 0
    endloop
  endfacet
  facet normal 0.935016 0.354605 0
    outer loop
      vertex 10.7291 6.57055 5
      vertex 10.5581 7.02137 0
      vertex 10.5581 7.02137 5
    endloop
  endfacet
  facet normal 0.935016 0.354605 0
    outer loop
      vertex 10.5581 7.02137 0
      vertex 10.7291 6.57055 5
      vertex 10.7291 6.57055 0
    endloop
  endfacet
  facet normal 0.663123 0.74851 -0
    outer loop
      vertex 11.3639 5.85403 0
      vertex 11.003 6.17375 5
      vertex 11.3639 5.85403 5
    endloop
  endfacet
  facet normal 0.663123 0.74851 0
    outer loop
      vertex 11.003 6.17375 5
      vertex 11.3639 5.85403 0
      vertex 11.003 6.17375 0
    endloop
  endfacet
  facet normal -0.663123 0.74851 0
    outer loop
      vertex 13.997 6.17375 0
      vertex 13.6361 5.85403 5
      vertex 13.997 6.17375 5
    endloop
  endfacet
  facet normal -0.663123 0.74851 0
    outer loop
      vertex 13.6361 5.85403 5
      vertex 13.997 6.17375 0
      vertex 13.6361 5.85403 0
    endloop
  endfacet
  facet normal 0 1 -0
    outer loop
      vertex 12.7411 5.51458 0
      vertex 12.2589 5.51458 5
      vertex 12.7411 5.51458 5
    endloop
  endfacet
  facet normal 0 1 0
    outer loop
      vertex 12.2589 5.51458 5
      vertex 12.7411 5.51458 0
      vertex 12.2589 5.51458 0
    endloop
  endfacet
  facet normal -0.822984 0.568065 0
    outer loop
      vertex 13.997 6.17375 0
      vertex 14.2709 6.57055 5
      vertex 14.2709 6.57055 0
    endloop
  endfacet
  facet normal -0.822984 0.568065 0
    outer loop
      vertex 14.2709 6.57055 5
      vertex 13.997 6.17375 0
      vertex 13.997 6.17375 5
    endloop
  endfacet
  facet normal 0.239315 0.970942 -0
    outer loop
      vertex 12.2589 5.51458 0
      vertex 11.7908 5.62997 5
      vertex 12.2589 5.51458 5
    endloop
  endfacet
  facet normal 0.239315 0.970942 0
    outer loop
      vertex 11.7908 5.62997 5
      vertex 12.2589 5.51458 0
      vertex 11.7908 5.62997 0
    endloop
  endfacet
  facet normal 0.464723 0.885456 -0
    outer loop
      vertex 11.7908 5.62997 0
      vertex 11.3639 5.85403 5
      vertex 11.7908 5.62997 5
    endloop
  endfacet
  facet normal 0.464723 0.885456 0
    outer loop
      vertex 11.3639 5.85403 5
      vertex 11.7908 5.62997 0
      vertex 11.3639 5.85403 0
    endloop
  endfacet
  facet normal -1 0 2.22045e-016
    outer loop
      vertex 1.11022e-015 15 5
      vertex 2.72203e-015 9.48542 12.2589
      vertex 4.44089e-015 15 20
    endloop
  endfacet
  facet normal -1 0 2.22045e-016
    outer loop
      vertex 1.11022e-015 15 5
      vertex 2.61808e-015 9.37003 11.7908
      vertex 2.72203e-015 9.48542 12.2589
    endloop
  endfacet
  facet normal -1 0 2.22045e-016
    outer loop
      vertex 1.11022e-015 15 5
      vertex 2.52329e-015 9.14597 11.3639
      vertex 2.61808e-015 9.37003 11.7908
    endloop
  endfacet
  facet normal -1 0 2.22045e-016
    outer loop
      vertex 1.11022e-015 15 5
      vertex 2.44315e-015 8.82625 11.003
      vertex 2.52329e-015 9.14597 11.3639
    endloop
  endfacet
  facet normal -1 0 2.22045e-016
    outer loop
      vertex 1.11022e-015 15 5
      vertex 2.38234e-015 8.42945 10.7291
      vertex 2.44315e-015 8.82625 11.003
    endloop
  endfacet
  facet normal -1 0 2.22045e-016
    outer loop
      vertex 1.11022e-015 15 5
      vertex 2.34437e-015 7.97863 10.5581
      vertex 2.38234e-015 8.42945 10.7291
    endloop
  endfacet
  facet normal -1 0 2.22045e-016
    outer loop
      vertex 1.11022e-015 15 5
      vertex 2.33147e-015 7.5 10.5
      vertex 2.34437e-015 7.97863 10.5581
    endloop
  endfacet
  facet normal -1 0 2.22045e-016
    outer loop
      vertex 1.11022e-015 0 5
      vertex 2.33147e-015 7.5 10.5
      vertex 1.11022e-015 15 5
    endloop
  endfacet
  facet normal -1 0 2.22045e-016
    outer loop
      vertex 2.33147e-015 7.5 10.5
      vertex 1.11022e-015 0 5
      vertex 2.34437e-015 7.02137 10.5581
    endloop
  endfacet
  facet normal -1 0 2.22045e-016
    outer loop
      vertex 2.72203e-015 5.51458 12.2589
      vertex 1.11022e-015 0 5
      vertex 2.82909e-015 5.51458 12.7411
    endloop
  endfacet
  facet normal -1 0 2.22045e-016
    outer loop
      vertex 2.61808e-015 5.62997 11.7908
      vertex 1.11022e-015 0 5
      vertex 2.72203e-015 5.51458 12.2589
    endloop
  endfacet
  facet normal -1 0 2.22045e-016
    outer loop
      vertex 2.52329e-015 5.85403 11.3639
      vertex 1.11022e-015 0 5
      vertex 2.61808e-015 5.62997 11.7908
    endloop
  endfacet
  facet normal -1 0 2.22045e-016
    outer loop
      vertex 2.44315e-015 6.17375 11.003
      vertex 1.11022e-015 0 5
      vertex 2.52329e-015 5.85403 11.3639
    endloop
  endfacet
  facet normal -1 0 2.22045e-016
    outer loop
      vertex 2.38234e-015 6.57055 10.7291
      vertex 1.11022e-015 0 5
      vertex 2.44315e-015 6.17375 11.003
    endloop
  endfacet
  facet normal -1 0 2.22045e-016
    outer loop
      vertex 2.34437e-015 7.02137 10.5581
      vertex 1.11022e-015 0 5
      vertex 2.38234e-015 6.57055 10.7291
    endloop
  endfacet
  facet normal -1 0 2.22045e-016
    outer loop
      vertex 2.82909e-015 9.48542 12.7411
      vertex 4.44089e-015 15 20
      vertex 2.72203e-015 9.48542 12.2589
    endloop
  endfacet
  facet normal -1 0 2.22045e-016
    outer loop
      vertex 2.93303e-015 9.37003 13.2092
      vertex 4.44089e-015 15 20
      vertex 2.82909e-015 9.48542 12.7411
    endloop
  endfacet
  facet normal -1 0 2.22045e-016
    outer loop
      vertex 3.02783e-015 9.14597 13.6361
      vertex 4.44089e-015 15 20
      vertex 2.93303e-015 9.37003 13.2092
    endloop
  endfacet
  facet normal -1 0 2.22045e-016
    outer loop
      vertex 3.10796e-015 8.82625 13.997
      vertex 4.44089e-015 15 20
      vertex 3.02783e-015 9.14597 13.6361
    endloop
  endfacet
  facet normal -1 0 2.22045e-016
    outer loop
      vertex 3.16878e-015 8.42945 14.2709
      vertex 4.44089e-015 15 20
      vertex 3.10796e-015 8.82625 13.997
    endloop
  endfacet
  facet normal -1 0 2.22045e-016
    outer loop
      vertex 3.20674e-015 7.97863 14.4419
      vertex 4.44089e-015 15 20
      vertex 3.16878e-015 8.42945 14.2709
    endloop
  endfacet
  facet normal -1 0 2.22045e-016
    outer loop
      vertex 3.21965e-015 7.5 14.5
      vertex 4.44089e-015 15 20
      vertex 3.20674e-015 7.97863 14.4419
    endloop
  endfacet
  facet normal -1 0 2.22045e-016
    outer loop
      vertex 4.44089e-015 0 20
      vertex 3.21965e-015 7.5 14.5
      vertex 3.20674e-015 7.02137 14.4419
    endloop
  endfacet
  facet normal -1 0 2.22045e-016
    outer loop
      vertex 4.44089e-015 0 20
      vertex 3.20674e-015 7.02137 14.4419
      vertex 3.16878e-015 6.57055 14.2709
    endloop
  endfacet
  facet normal -1 0 2.22045e-016
    outer loop
      vertex 4.44089e-015 0 20
      vertex 2.82909e-015 5.51458 12.7411
      vertex 1.11022e-015 0 5
    endloop
  endfacet
  facet normal -1 0 2.22045e-016
    outer loop
      vertex 2.82909e-015 5.51458 12.7411
      vertex 4.44089e-015 0 20
      vertex 2.93303e-015 5.62997 13.2092
    endloop
  endfacet
  facet normal -1 0 2.22045e-016
    outer loop
      vertex 3.21965e-015 7.5 14.5
      vertex 4.44089e-015 0 20
      vertex 4.44089e-015 15 20
    endloop
  endfacet
  facet normal -1 0 2.22045e-016
    outer loop
      vertex 3.10796e-015 6.17375 13.997
      vertex 4.44089e-015 0 20
      vertex 3.16878e-015 6.57055 14.2709
    endloop
  endfacet
  facet normal -1 0 2.22045e-016
    outer loop
      vertex 3.02783e-015 5.85403 13.6361
      vertex 4.44089e-015 0 20
      vertex 3.10796e-015 6.17375 13.997
    endloop
  endfacet
  facet normal -1 0 2.22045e-016
    outer loop
      vertex 2.93303e-015 5.62997 13.2092
      vertex 4.44089e-015 0 20
      vertex 3.02783e-015 5.85403 13.6361
    endloop
  endfacet
  facet normal -0 0 1
    outer loop
      vertex 4.44089e-015 15 20
      vertex 5 0 20
      vertex 5 15 20
    endloop
  endfacet
  facet normal 0 0 1
    outer loop
      vertex 5 0 20
      vertex 4.44089e-015 15 20
      vertex 4.44089e-015 0 20
    endloop
  endfacet
  facet normal 1 0 0
    outer loop
      vertex 5 15 20
      vertex 5 9.48542 12.7411
      vertex 5 15 5
    endloop
  endfacet
  facet normal 1 0 0
    outer loop
      vertex 5 15 20
      vertex 5 9.37003 13.2092
      vertex 5 9.48542 12.7411
    endloop
  endfacet
  facet normal 1 0 0
    outer loop
      vertex 5 15 20
      vertex 5 9.14597 13.6361
      vertex 5 9.37003 13.2092
    endloop
  endfacet
  facet normal 1 0 0
    outer loop
      vertex 5 15 20
      vertex 5 8.82625 13.997
      vertex 5 9.14597 13.6361
    endloop
  endfacet
  facet normal 1 0 0
    outer loop
      vertex 5 15 20
      vertex 5 8.42945 14.2709
      vertex 5 8.82625 13.997
    endloop
  endfacet
  facet normal 1 0 0
    outer loop
      vertex 5 15 20
      vertex 5 7.97863 14.4419
      vertex 5 8.42945 14.2709
    endloop
  endfacet
  facet normal 1 0 0
    outer loop
      vertex 5 15 20
      vertex 5 7.5 14.5
      vertex 5 7.97863 14.4419
    endloop
  endfacet
  facet normal 1 -0 0
    outer loop
      vertex 5 0 20
      vertex 5 7.5 14.5
      vertex 5 15 20
    endloop
  endfacet
  facet normal 1 0 0
    outer loop
      vertex 5 7.5 14.5
      vertex 5 0 20
      vertex 5 7.02137 14.4419
    endloop
  endfacet
  facet normal 1 0 0
    outer loop
      vertex 5 5.51458 12.7411
      vertex 5 0 20
      vertex 5 5.51458 12.2589
    endloop
  endfacet
  facet normal 1 0 0
    outer loop
      vertex 5 5.62997 13.2092
      vertex 5 0 20
      vertex 5 5.51458 12.7411
    endloop
  endfacet
  facet normal 1 0 0
    outer loop
      vertex 5 5.85403 13.6361
      vertex 5 0 20
      vertex 5 5.62997 13.2092
    endloop
  endfacet
  facet normal 1 0 0
    outer loop
      vertex 5 6.17375 13.997
      vertex 5 0 20
      vertex 5 5.85403 13.6361
    endloop
  endfacet
  facet normal 1 0 0
    outer loop
      vertex 5 6.57055 14.2709
      vertex 5 0 20
      vertex 5 6.17375 13.997
    endloop
  endfacet
  facet normal 1 0 0
    outer loop
      vertex 5 7.02137 14.4419
      vertex 5 0 20
      vertex 5 6.57055 14.2709
    endloop
  endfacet
  facet normal 1 -0 0
    outer loop
      vertex 5 9.48542 12.2589
      vertex 5 15 5
      vertex 5 9.48542 12.7411
    endloop
  endfacet
  facet normal 1 -0 0
    outer loop
      vertex 5 9.37003 11.7908
      vertex 5 15 5
      vertex 5 9.48542 12.2589
    endloop
  endfacet
  facet normal 1 -0 0
    outer loop
      vertex 5 9.14597 11.3639
      vertex 5 15 5
      vertex 5 9.37003 11.7908
    endloop
  endfacet
  facet normal 1 -0 0
    outer loop
      vertex 5 8.82625 11.003
      vertex 5 15 5
      vertex 5 9.14597 11.3639
    endloop
  endfacet
  facet normal 1 -0 0
    outer loop
      vertex 5 8.42945 10.7291
      vertex 5 15 5
      vertex 5 8.82625 11.003
    endloop
  endfacet
  facet normal 1 -0 0
    outer loop
      vertex 5 7.97863 10.5581
      vertex 5 15 5
      vertex 5 8.42945 10.7291
    endloop
  endfacet
  facet normal 1 -0 0
    outer loop
      vertex 5 7.5 10.5
      vertex 5 15 5
      vertex 5 7.97863 10.5581
    endloop
  endfacet
  facet normal 1 0 0
    outer loop
      vertex 5 0 5
      vertex 5 7.5 10.5
      vertex 5 7.02137 10.5581
    endloop
  endfacet
  facet normal 1 0 0
    outer loop
      vertex 5 0 5
      vertex 5 7.02137 10.5581
      vertex 5 6.57055 10.7291
    endloop
  endfacet
  facet normal 1 0 0
    outer loop
      vertex 5 0 5
      vertex 5 5.51458 12.2589
      vertex 5 0 20
    endloop
  endfacet
  facet normal 1 0 0
    outer loop
      vertex 5 5.51458 12.2589
      vertex 5 0 5
      vertex 5 5.62997 11.7908
    endloop
  endfacet
  facet normal 1 0 0
    outer loop
      vertex 5 7.5 10.5
      vertex 5 0 5
      vertex 5 15 5
    endloop
  endfacet
  facet normal 1 0 0
    outer loop
      vertex 5 6.17375 11.003
      vertex 5 0 5
      vertex 5 6.57055 10.7291
    endloop
  endfacet
  facet normal 1 0 0
    outer loop
      vertex 5 5.85403 11.3639
      vertex 5 0 5
      vertex 5 6.17375 11.003
    endloop
  endfacet
  facet normal 1 0 0
    outer loop
      vertex 5 5.62997 11.7908
      vertex 5 0 5
      vertex 5 5.85403 11.3639
    endloop
  endfacet
  facet normal 0 -0.120538 -0.992709
    outer loop
      vertex 3.21965e-015 7.5 14.5
      vertex 5 7.97863 14.4419
      vertex 5 7.5 14.5
    endloop
  endfacet
  facet normal -0 -0.120538 -0.992709
    outer loop
      vertex 5 7.97863 14.4419
      vertex 3.21965e-015 7.5 14.5
      vertex 3.20674e-015 7.97863 14.4419
    endloop
  endfacet
  facet normal 0 -0.970942 0.239315
    outer loop
      vertex 2.61808e-015 9.37003 11.7908
      vertex 5 9.48542 12.2589
      vertex 2.72203e-015 9.48542 12.2589
    endloop
  endfacet
  facet normal 0 -0.970942 0.239315
    outer loop
      vertex 5 9.48542 12.2589
      vertex 2.61808e-015 9.37003 11.7908
      vertex 5 9.37003 11.7908
    endloop
  endfacet
  facet normal 0 0.970942 -0.239315
    outer loop
      vertex 5 5.51458 12.7411
      vertex 2.93303e-015 5.62997 13.2092
      vertex 5 5.62997 13.2092
    endloop
  endfacet
  facet normal 0 0.970942 -0.239315
    outer loop
      vertex 2.93303e-015 5.62997 13.2092
      vertex 5 5.51458 12.7411
      vertex 2.82909e-015 5.51458 12.7411
    endloop
  endfacet
  facet normal 0 0.885456 -0.464723
    outer loop
      vertex 5 5.62997 13.2092
      vertex 3.02783e-015 5.85403 13.6361
      vertex 5 5.85403 13.6361
    endloop
  endfacet
  facet normal 0 0.885456 -0.464723
    outer loop
      vertex 3.02783e-015 5.85403 13.6361
      vertex 5 5.62997 13.2092
      vertex 2.93303e-015 5.62997 13.2092
    endloop
  endfacet
  facet normal 0 -0.74851 -0.663123
    outer loop
      vertex 3.02783e-015 9.14597 13.6361
      vertex 5 8.82625 13.997
      vertex 3.10796e-015 8.82625 13.997
    endloop
  endfacet
  facet normal 0 -0.74851 -0.663123
    outer loop
      vertex 5 8.82625 13.997
      vertex 3.02783e-015 9.14597 13.6361
      vertex 5 9.14597 13.6361
    endloop
  endfacet
  facet normal 0 -0.354605 -0.935016
    outer loop
      vertex 3.20674e-015 7.97863 14.4419
      vertex 5 8.42945 14.2709
      vertex 5 7.97863 14.4419
    endloop
  endfacet
  facet normal -0 -0.354605 -0.935016
    outer loop
      vertex 5 8.42945 14.2709
      vertex 3.20674e-015 7.97863 14.4419
      vertex 3.16878e-015 8.42945 14.2709
    endloop
  endfacet
  facet normal 0 -0.568065 0.822984
    outer loop
      vertex 2.44315e-015 8.82625 11.003
      vertex 5 8.42945 10.7291
      vertex 5 8.82625 11.003
    endloop
  endfacet
  facet normal 0 -0.568065 0.822984
    outer loop
      vertex 5 8.42945 10.7291
      vertex 2.44315e-015 8.82625 11.003
      vertex 2.38234e-015 8.42945 10.7291
    endloop
  endfacet
  facet normal 0 -0.354605 0.935016
    outer loop
      vertex 2.38234e-015 8.42945 10.7291
      vertex 5 7.97863 10.5581
      vertex 5 8.42945 10.7291
    endloop
  endfacet
  facet normal 0 -0.354605 0.935016
    outer loop
      vertex 5 7.97863 10.5581
      vertex 2.38234e-015 8.42945 10.7291
      vertex 2.34437e-015 7.97863 10.5581
    endloop
  endfacet
  facet normal 0 -0.885456 0.464723
    outer loop
      vertex 2.52329e-015 9.14597 11.3639
      vertex 5 9.37003 11.7908
      vertex 2.61808e-015 9.37003 11.7908
    endloop
  endfacet
  facet normal 0 -0.885456 0.464723
    outer loop
      vertex 5 9.37003 11.7908
      vertex 2.52329e-015 9.14597 11.3639
      vertex 5 9.14597 11.3639
    endloop
  endfacet
  facet normal 0 -0.568065 -0.822984
    outer loop
      vertex 3.16878e-015 8.42945 14.2709
      vertex 5 8.82625 13.997
      vertex 5 8.42945 14.2709
    endloop
  endfacet
  facet normal -0 -0.568065 -0.822984
    outer loop
      vertex 5 8.82625 13.997
      vertex 3.16878e-015 8.42945 14.2709
      vertex 3.10796e-015 8.82625 13.997
    endloop
  endfacet
  facet normal 0 -0.970942 -0.239315
    outer loop
      vertex 2.82909e-015 9.48542 12.7411
      vertex 5 9.37003 13.2092
      vertex 2.93303e-015 9.37003 13.2092
    endloop
  endfacet
  facet normal 0 -0.970942 -0.239315
    outer loop
      vertex 5 9.37003 13.2092
      vertex 2.82909e-015 9.48542 12.7411
      vertex 5 9.48542 12.7411
    endloop
  endfacet
  facet normal 0 -1 0
    outer loop
      vertex 2.72203e-015 9.48542 12.2589
      vertex 5 9.48542 12.7411
      vertex 2.82909e-015 9.48542 12.7411
    endloop
  endfacet
  facet normal 0 -1 -0
    outer loop
      vertex 5 9.48542 12.7411
      vertex 2.72203e-015 9.48542 12.2589
      vertex 5 9.48542 12.2589
    endloop
  endfacet
  facet normal 0 -0.885456 -0.464723
    outer loop
      vertex 2.93303e-015 9.37003 13.2092
      vertex 5 9.14597 13.6361
      vertex 3.02783e-015 9.14597 13.6361
    endloop
  endfacet
  facet normal 0 -0.885456 -0.464723
    outer loop
      vertex 5 9.14597 13.6361
      vertex 2.93303e-015 9.37003 13.2092
      vertex 5 9.37003 13.2092
    endloop
  endfacet
  facet normal 0 -0.120536 0.992709
    outer loop
      vertex 2.34437e-015 7.97863 10.5581
      vertex 5 7.5 10.5
      vertex 5 7.97863 10.5581
    endloop
  endfacet
  facet normal 0 -0.120536 0.992709
    outer loop
      vertex 5 7.5 10.5
      vertex 2.34437e-015 7.97863 10.5581
      vertex 2.33147e-015 7.5 10.5
    endloop
  endfacet
  facet normal 0 -0.74851 0.663123
    outer loop
      vertex 2.44315e-015 8.82625 11.003
      vertex 5 9.14597 11.3639
      vertex 2.52329e-015 9.14597 11.3639
    endloop
  endfacet
  facet normal 0 -0.74851 0.663123
    outer loop
      vertex 5 9.14597 11.3639
      vertex 2.44315e-015 8.82625 11.003
      vertex 5 8.82625 11.003
    endloop
  endfacet
  facet normal 0 0.354605 -0.935016
    outer loop
      vertex 5 6.57055 14.2709
      vertex 3.20674e-015 7.02137 14.4419
      vertex 5 7.02137 14.4419
    endloop
  endfacet
  facet normal 0 0.354605 -0.935016
    outer loop
      vertex 3.20674e-015 7.02137 14.4419
      vertex 5 6.57055 14.2709
      vertex 3.16878e-015 6.57055 14.2709
    endloop
  endfacet
  facet normal 0 0.120536 0.992709
    outer loop
      vertex 5 7.5 10.5
      vertex 2.34437e-015 7.02137 10.5581
      vertex 5 7.02137 10.5581
    endloop
  endfacet
  facet normal 0 0.120536 0.992709
    outer loop
      vertex 2.34437e-015 7.02137 10.5581
      vertex 5 7.5 10.5
      vertex 2.33147e-015 7.5 10.5
    endloop
  endfacet
  facet normal 0 0.568065 0.822984
    outer loop
      vertex 5 6.57055 10.7291
      vertex 2.44315e-015 6.17375 11.003
      vertex 5 6.17375 11.003
    endloop
  endfacet
  facet normal 0 0.568065 0.822984
    outer loop
      vertex 2.44315e-015 6.17375 11.003
      vertex 5 6.57055 10.7291
      vertex 2.38234e-015 6.57055 10.7291
    endloop
  endfacet
  facet normal 0 0.354605 0.935016
    outer loop
      vertex 5 7.02137 10.5581
      vertex 2.38234e-015 6.57055 10.7291
      vertex 5 6.57055 10.7291
    endloop
  endfacet
  facet normal 0 0.354605 0.935016
    outer loop
      vertex 2.38234e-015 6.57055 10.7291
      vertex 5 7.02137 10.5581
      vertex 2.34437e-015 7.02137 10.5581
    endloop
  endfacet
  facet normal 0 0.74851 0.663123
    outer loop
      vertex 5 6.17375 11.003
      vertex 2.52329e-015 5.85403 11.3639
      vertex 5 5.85403 11.3639
    endloop
  endfacet
  facet normal 0 0.74851 0.663123
    outer loop
      vertex 2.52329e-015 5.85403 11.3639
      vertex 5 6.17375 11.003
      vertex 2.44315e-015 6.17375 11.003
    endloop
  endfacet
  facet normal 0 0.74851 -0.663123
    outer loop
      vertex 5 5.85403 13.6361
      vertex 3.10796e-015 6.17375 13.997
      vertex 5 6.17375 13.997
    endloop
  endfacet
  facet normal 0 0.74851 -0.663123
    outer loop
      vertex 3.10796e-015 6.17375 13.997
      vertex 5 5.85403 13.6361
      vertex 3.02783e-015 5.85403 13.6361
    endloop
  endfacet
  facet normal 0 0.120538 -0.992709
    outer loop
      vertex 5 7.02137 14.4419
      vertex 3.21965e-015 7.5 14.5
      vertex 5 7.5 14.5
    endloop
  endfacet
  facet normal 0 0.120538 -0.992709
    outer loop
      vertex 3.21965e-015 7.5 14.5
      vertex 5 7.02137 14.4419
      vertex 3.20674e-015 7.02137 14.4419
    endloop
  endfacet
  facet normal 0 1 -0
    outer loop
      vertex 5 5.51458 12.2589
      vertex 2.82909e-015 5.51458 12.7411
      vertex 5 5.51458 12.7411
    endloop
  endfacet
  facet normal 0 1 0
    outer loop
      vertex 2.82909e-015 5.51458 12.7411
      vertex 5 5.51458 12.2589
      vertex 2.72203e-015 5.51458 12.2589
    endloop
  endfacet
  facet normal 0 0.568065 -0.822984
    outer loop
      vertex 5 6.17375 13.997
      vertex 3.16878e-015 6.57055 14.2709
      vertex 5 6.57055 14.2709
    endloop
  endfacet
  facet normal 0 0.568065 -0.822984
    outer loop
      vertex 3.16878e-015 6.57055 14.2709
      vertex 5 6.17375 13.997
      vertex 3.10796e-015 6.17375 13.997
    endloop
  endfacet
  facet normal 0 0.970942 0.239315
    outer loop
      vertex 5 5.62997 11.7908
      vertex 2.72203e-015 5.51458 12.2589
      vertex 5 5.51458 12.2589
    endloop
  endfacet
  facet normal 0 0.970942 0.239315
    outer loop
      vertex 2.72203e-015 5.51458 12.2589
      vertex 5 5.62997 11.7908
      vertex 2.61808e-015 5.62997 11.7908
    endloop
  endfacet
  facet normal 0 0.885456 0.464723
    outer loop
      vertex 5 5.85403 11.3639
      vertex 2.61808e-015 5.62997 11.7908
      vertex 5 5.62997 11.7908
    endloop
  endfacet
  facet normal 0 0.885456 0.464723
    outer loop
      vertex 2.61808e-015 5.62997 11.7908
      vertex 5 5.85403 11.3639
      vertex 2.52329e-015 5.85403 11.3639
    endloop
  endfacet
endsolid OpenSCAD_Model
